# xmcd
#
# Track frame offsets:
# 150
# 18595
# 35147
# 54955
# 69597
# 79245
# 96962
# 111182
# 127255
# 145650
# 166590
# 171487
# 182052
#
# Disc length: 2666 seconds
#
#
# Revision: 0
# Processed by: cddbd v1.5.2PL0 Copyright (c) Steve Scherf et al.
# Submitted via: FreeRIP 2.96 
#
DISCID=b60a680d
DTITLE=Paulo Simões - Rumo a Dois Mil e ... Uns!
DYEAR=2002
DGENRE=Country
TTITLE0=Mês de Maio
TTITLE1=Relógio Que Atrasa
TTITLE2=O Que Passou Passou
TTITLE3=Bolha De Sabão
TTITLE4=Não Despreze Os Astros
TTITLE5=Faminto e Sedento
TTITLE6=O Prazer e a Honra
TTITLE7=Circuito Fechado
TTITLE8=Interior
TTITLE9=Mais Um Verão
TTITLE10=Mês de Maio
TTITLE11=Terra Boa
TTITLE12=Trem da Solidão
EXTD=
EXTT0=
EXTT1=
EXTT2=
EXTT3=
EXTT4=
EXTT5=
EXTT6=
EXTT7=
EXTT8=
EXTT9=
EXTT10=
EXTT11=
EXTT12=
PLAYORDER=
